<mxfile host="65bd71144e">
    <diagram id="rXqYsdX88Hvy9_a4BepW" name="Page-1">
        <mxGraphModel dx="771" dy="1468" grid="1" gridSize="10" guides="1" tooltips="1" connect="1" arrows="1" fold="1" page="1" pageScale="1" pageWidth="850" pageHeight="1100" math="0" shadow="0">
            <root>
                <mxCell id="0"/>
                <mxCell id="1" parent="0"/>
                <mxCell id="2" value="" style="rounded=0;whiteSpace=wrap;html=1;" parent="1" vertex="1">
                    <mxGeometry x="200" width="560" height="320" as="geometry"/>
                </mxCell>
                <mxCell id="4" value="" style="endArrow=none;html=1;" parent="1" edge="1">
                    <mxGeometry width="50" height="50" relative="1" as="geometry">
                        <mxPoint x="220" y="360" as="sourcePoint"/>
                        <mxPoint x="220" y="320" as="targetPoint"/>
                    </mxGeometry>
                </mxCell>
                <mxCell id="5" value="" style="endArrow=none;html=1;" parent="1" edge="1">
                    <mxGeometry width="50" height="50" relative="1" as="geometry">
                        <mxPoint x="240" y="360.00000000000006" as="sourcePoint"/>
                        <mxPoint x="240" y="320.00000000000006" as="targetPoint"/>
                    </mxGeometry>
                </mxCell>
                <mxCell id="6" value="" style="endArrow=none;html=1;" parent="1" edge="1">
                    <mxGeometry width="50" height="50" relative="1" as="geometry">
                        <mxPoint x="260" y="360.00000000000006" as="sourcePoint"/>
                        <mxPoint x="260" y="320.00000000000006" as="targetPoint"/>
                    </mxGeometry>
                </mxCell>
                <mxCell id="7" value="" style="endArrow=none;html=1;" parent="1" edge="1">
                    <mxGeometry width="50" height="50" relative="1" as="geometry">
                        <mxPoint x="280" y="360.00000000000006" as="sourcePoint"/>
                        <mxPoint x="280" y="320.00000000000006" as="targetPoint"/>
                    </mxGeometry>
                </mxCell>
                <mxCell id="8" value="" style="endArrow=none;html=1;" parent="1" edge="1">
                    <mxGeometry width="50" height="50" relative="1" as="geometry">
                        <mxPoint x="300" y="360.00000000000006" as="sourcePoint"/>
                        <mxPoint x="300" y="320.00000000000006" as="targetPoint"/>
                    </mxGeometry>
                </mxCell>
                <mxCell id="9" value="" style="endArrow=none;html=1;" parent="1" edge="1">
                    <mxGeometry width="50" height="50" relative="1" as="geometry">
                        <mxPoint x="320" y="360.00000000000006" as="sourcePoint"/>
                        <mxPoint x="320" y="320.00000000000006" as="targetPoint"/>
                    </mxGeometry>
                </mxCell>
                <mxCell id="10" value="" style="endArrow=none;html=1;" parent="1" edge="1">
                    <mxGeometry width="50" height="50" relative="1" as="geometry">
                        <mxPoint x="340" y="360.00000000000006" as="sourcePoint"/>
                        <mxPoint x="340" y="320.00000000000006" as="targetPoint"/>
                    </mxGeometry>
                </mxCell>
                <mxCell id="11" value="" style="endArrow=none;html=1;" parent="1" edge="1">
                    <mxGeometry width="50" height="50" relative="1" as="geometry">
                        <mxPoint x="360" y="360.00000000000006" as="sourcePoint"/>
                        <mxPoint x="360" y="320.00000000000006" as="targetPoint"/>
                    </mxGeometry>
                </mxCell>
                <mxCell id="12" value="" style="endArrow=none;html=1;" parent="1" edge="1">
                    <mxGeometry width="50" height="50" relative="1" as="geometry">
                        <mxPoint x="380" y="360.00000000000006" as="sourcePoint"/>
                        <mxPoint x="380" y="320.00000000000006" as="targetPoint"/>
                    </mxGeometry>
                </mxCell>
                <mxCell id="13" value="" style="endArrow=none;html=1;" parent="1" edge="1">
                    <mxGeometry width="50" height="50" relative="1" as="geometry">
                        <mxPoint x="400" y="360.00000000000006" as="sourcePoint"/>
                        <mxPoint x="400" y="320.00000000000006" as="targetPoint"/>
                    </mxGeometry>
                </mxCell>
                <mxCell id="14" value="" style="endArrow=none;html=1;" parent="1" edge="1">
                    <mxGeometry width="50" height="50" relative="1" as="geometry">
                        <mxPoint x="420" y="360.00000000000006" as="sourcePoint"/>
                        <mxPoint x="420" y="320.00000000000006" as="targetPoint"/>
                    </mxGeometry>
                </mxCell>
                <mxCell id="15" value="" style="endArrow=none;html=1;" parent="1" edge="1">
                    <mxGeometry width="50" height="50" relative="1" as="geometry">
                        <mxPoint x="440" y="360.00000000000006" as="sourcePoint"/>
                        <mxPoint x="440" y="320.00000000000006" as="targetPoint"/>
                    </mxGeometry>
                </mxCell>
                <mxCell id="19" value="12V" style="text;html=1;strokeColor=none;fillColor=none;align=center;verticalAlign=middle;whiteSpace=wrap;rounded=0;fontSize=8;" parent="1" vertex="1">
                    <mxGeometry x="210" y="300" width="20" height="20" as="geometry"/>
                </mxCell>
                <mxCell id="20" value="5V" style="text;html=1;strokeColor=none;fillColor=none;align=center;verticalAlign=middle;whiteSpace=wrap;rounded=0;fontSize=8;" parent="1" vertex="1">
                    <mxGeometry x="230" y="300" width="20" height="20" as="geometry"/>
                </mxCell>
                <mxCell id="21" value="3V3" style="text;html=1;strokeColor=none;fillColor=none;align=center;verticalAlign=middle;whiteSpace=wrap;rounded=0;fontSize=8;" parent="1" vertex="1">
                    <mxGeometry x="250" y="300" width="20" height="20" as="geometry"/>
                </mxCell>
                <mxCell id="22" value="GND" style="text;html=1;strokeColor=none;fillColor=none;align=center;verticalAlign=middle;whiteSpace=wrap;rounded=0;fontSize=8;" parent="1" vertex="1">
                    <mxGeometry x="270" y="300" width="20" height="20" as="geometry"/>
                </mxCell>
                <mxCell id="23" value="EN" style="text;html=1;strokeColor=none;fillColor=none;align=center;verticalAlign=middle;whiteSpace=wrap;rounded=0;fontSize=8;" parent="1" vertex="1">
                    <mxGeometry x="290" y="300" width="20" height="20" as="geometry"/>
                </mxCell>
                <mxCell id="24" value="D2" style="text;html=1;strokeColor=none;fillColor=none;align=center;verticalAlign=middle;whiteSpace=wrap;rounded=0;fontSize=8;" parent="1" vertex="1">
                    <mxGeometry x="310" y="300" width="20" height="20" as="geometry"/>
                </mxCell>
                <mxCell id="25" value="RX" style="text;html=1;strokeColor=none;fillColor=none;align=center;verticalAlign=middle;whiteSpace=wrap;rounded=0;fontSize=8;" parent="1" vertex="1">
                    <mxGeometry x="330" y="300" width="20" height="20" as="geometry"/>
                </mxCell>
                <mxCell id="26" value="TX" style="text;html=1;strokeColor=none;fillColor=none;align=center;verticalAlign=middle;whiteSpace=wrap;rounded=0;fontSize=8;" parent="1" vertex="1">
                    <mxGeometry x="350" y="300" width="20" height="20" as="geometry"/>
                </mxCell>
                <mxCell id="27" value="" style="endArrow=none;html=1;" parent="1" edge="1">
                    <mxGeometry width="50" height="50" relative="1" as="geometry">
                        <mxPoint x="460.0000000000001" y="360" as="sourcePoint"/>
                        <mxPoint x="460.0000000000001" y="320.00000000000006" as="targetPoint"/>
                    </mxGeometry>
                </mxCell>
                <mxCell id="28" value="" style="endArrow=none;html=1;" parent="1" edge="1">
                    <mxGeometry width="50" height="50" relative="1" as="geometry">
                        <mxPoint x="480.0000000000001" y="360" as="sourcePoint"/>
                        <mxPoint x="480.0000000000001" y="320.00000000000006" as="targetPoint"/>
                    </mxGeometry>
                </mxCell>
                <mxCell id="29" value="" style="endArrow=none;html=1;" parent="1" edge="1">
                    <mxGeometry width="50" height="50" relative="1" as="geometry">
                        <mxPoint x="500.0000000000001" y="360" as="sourcePoint"/>
                        <mxPoint x="500.0000000000001" y="320.00000000000006" as="targetPoint"/>
                    </mxGeometry>
                </mxCell>
                <mxCell id="30" value="" style="endArrow=none;html=1;" parent="1" edge="1">
                    <mxGeometry width="50" height="50" relative="1" as="geometry">
                        <mxPoint x="520.0000000000001" y="360" as="sourcePoint"/>
                        <mxPoint x="520.0000000000001" y="320.00000000000006" as="targetPoint"/>
                    </mxGeometry>
                </mxCell>
                <mxCell id="31" value="" style="endArrow=none;html=1;" parent="1" edge="1">
                    <mxGeometry width="50" height="50" relative="1" as="geometry">
                        <mxPoint x="520.0000000000001" y="360" as="sourcePoint"/>
                        <mxPoint x="520.0000000000001" y="320.00000000000006" as="targetPoint"/>
                    </mxGeometry>
                </mxCell>
                <mxCell id="32" value="" style="endArrow=none;html=1;" parent="1" edge="1">
                    <mxGeometry width="50" height="50" relative="1" as="geometry">
                        <mxPoint x="540.0000000000001" y="360" as="sourcePoint"/>
                        <mxPoint x="540.0000000000001" y="320.00000000000006" as="targetPoint"/>
                    </mxGeometry>
                </mxCell>
                <mxCell id="33" value="" style="endArrow=none;html=1;" parent="1" edge="1">
                    <mxGeometry width="50" height="50" relative="1" as="geometry">
                        <mxPoint x="560.0000000000001" y="360" as="sourcePoint"/>
                        <mxPoint x="560.0000000000001" y="320.00000000000006" as="targetPoint"/>
                    </mxGeometry>
                </mxCell>
                <mxCell id="34" value="" style="endArrow=none;html=1;" parent="1" edge="1">
                    <mxGeometry width="50" height="50" relative="1" as="geometry">
                        <mxPoint x="580.0000000000001" y="360" as="sourcePoint"/>
                        <mxPoint x="580.0000000000001" y="320.00000000000006" as="targetPoint"/>
                    </mxGeometry>
                </mxCell>
                <mxCell id="35" value="" style="endArrow=none;html=1;" parent="1" edge="1">
                    <mxGeometry width="50" height="50" relative="1" as="geometry">
                        <mxPoint x="600.0000000000001" y="360" as="sourcePoint"/>
                        <mxPoint x="600.0000000000001" y="320.00000000000006" as="targetPoint"/>
                    </mxGeometry>
                </mxCell>
                <mxCell id="36" value="" style="endArrow=none;html=1;" parent="1" edge="1">
                    <mxGeometry width="50" height="50" relative="1" as="geometry">
                        <mxPoint x="620.0000000000001" y="360" as="sourcePoint"/>
                        <mxPoint x="620.0000000000001" y="320.00000000000006" as="targetPoint"/>
                    </mxGeometry>
                </mxCell>
                <mxCell id="40" value="12V" style="text;html=1;strokeColor=none;fillColor=none;align=center;verticalAlign=middle;whiteSpace=wrap;rounded=0;fontSize=6;" parent="1" vertex="1">
                    <mxGeometry x="210" y="360" width="20" height="20" as="geometry"/>
                </mxCell>
                <mxCell id="41" value="5V" style="text;html=1;strokeColor=none;fillColor=none;align=center;verticalAlign=middle;whiteSpace=wrap;rounded=0;fontSize=6;" parent="1" vertex="1">
                    <mxGeometry x="230" y="360" width="20" height="20" as="geometry"/>
                </mxCell>
                <mxCell id="42" value="3V3" style="text;html=1;strokeColor=none;fillColor=none;align=center;verticalAlign=middle;whiteSpace=wrap;rounded=0;fontSize=6;" parent="1" vertex="1">
                    <mxGeometry x="250" y="360" width="20" height="20" as="geometry"/>
                </mxCell>
                <mxCell id="43" value="GND" style="text;html=1;strokeColor=none;fillColor=none;align=center;verticalAlign=middle;whiteSpace=wrap;rounded=0;fontSize=6;" parent="1" vertex="1">
                    <mxGeometry x="270" y="360" width="20" height="20" as="geometry"/>
                </mxCell>
                <mxCell id="44" value="EN" style="text;html=1;strokeColor=none;fillColor=none;align=center;verticalAlign=middle;whiteSpace=wrap;rounded=0;fontSize=6;" parent="1" vertex="1">
                    <mxGeometry x="290" y="360" width="20" height="20" as="geometry"/>
                </mxCell>
                <mxCell id="45" value="CS" style="text;html=1;strokeColor=none;fillColor=none;align=center;verticalAlign=middle;whiteSpace=wrap;rounded=0;fontSize=6;" parent="1" vertex="1">
                    <mxGeometry x="310" y="360" width="20" height="20" as="geometry"/>
                </mxCell>
                <mxCell id="46" value="RX" style="text;html=1;strokeColor=none;fillColor=none;align=center;verticalAlign=middle;whiteSpace=wrap;rounded=0;fontSize=6;" parent="1" vertex="1">
                    <mxGeometry x="330" y="360" width="20" height="20" as="geometry"/>
                </mxCell>
                <mxCell id="47" value="TX" style="text;html=1;strokeColor=none;fillColor=none;align=center;verticalAlign=middle;whiteSpace=wrap;rounded=0;fontSize=6;" parent="1" vertex="1">
                    <mxGeometry x="350" y="360" width="20" height="20" as="geometry"/>
                </mxCell>
                <mxCell id="48" value="D7" style="text;html=1;strokeColor=none;fillColor=none;align=center;verticalAlign=middle;whiteSpace=wrap;rounded=0;fontSize=6;" parent="1" vertex="1">
                    <mxGeometry x="370" y="360" width="20" height="20" as="geometry"/>
                </mxCell>
                <mxCell id="49" value="D6" style="text;html=1;strokeColor=none;fillColor=none;align=center;verticalAlign=middle;whiteSpace=wrap;rounded=0;fontSize=6;" parent="1" vertex="1">
                    <mxGeometry x="390" y="360" width="20" height="20" as="geometry"/>
                </mxCell>
                <mxCell id="50" value="D5" style="text;html=1;strokeColor=none;fillColor=none;align=center;verticalAlign=middle;whiteSpace=wrap;rounded=0;fontSize=6;" parent="1" vertex="1">
                    <mxGeometry x="410" y="360" width="20" height="20" as="geometry"/>
                </mxCell>
                <mxCell id="51" value="D4" style="text;html=1;strokeColor=none;fillColor=none;align=center;verticalAlign=middle;whiteSpace=wrap;rounded=0;fontSize=6;" parent="1" vertex="1">
                    <mxGeometry x="430" y="360" width="20" height="20" as="geometry"/>
                </mxCell>
                <mxCell id="52" value="D3" style="text;html=1;strokeColor=none;fillColor=none;align=center;verticalAlign=middle;whiteSpace=wrap;rounded=0;fontSize=6;" parent="1" vertex="1">
                    <mxGeometry x="450" y="360" width="20" height="20" as="geometry"/>
                </mxCell>
                <mxCell id="53" value="D2" style="text;html=1;strokeColor=none;fillColor=none;align=center;verticalAlign=middle;whiteSpace=wrap;rounded=0;fontSize=6;" parent="1" vertex="1">
                    <mxGeometry x="470" y="360" width="20" height="20" as="geometry"/>
                </mxCell>
                <mxCell id="54" value="D1" style="text;html=1;strokeColor=none;fillColor=none;align=center;verticalAlign=middle;whiteSpace=wrap;rounded=0;fontSize=6;" parent="1" vertex="1">
                    <mxGeometry x="490" y="360" width="20" height="20" as="geometry"/>
                </mxCell>
                <mxCell id="55" value="D0" style="text;html=1;strokeColor=none;fillColor=none;align=center;verticalAlign=middle;whiteSpace=wrap;rounded=0;fontSize=6;" parent="1" vertex="1">
                    <mxGeometry x="510" y="360" width="20" height="20" as="geometry"/>
                </mxCell>
                <mxCell id="56" value="SCLK" style="text;html=1;strokeColor=none;fillColor=none;align=center;verticalAlign=middle;whiteSpace=wrap;rounded=0;fontSize=6;" parent="1" vertex="1">
                    <mxGeometry x="530" y="360" width="20" height="20" as="geometry"/>
                </mxCell>
                <mxCell id="57" value="MOSI" style="text;html=1;strokeColor=none;fillColor=none;align=center;verticalAlign=middle;whiteSpace=wrap;rounded=0;fontSize=6;" parent="1" vertex="1">
                    <mxGeometry x="550" y="360" width="20" height="20" as="geometry"/>
                </mxCell>
                <mxCell id="58" value="MISO" style="text;html=1;strokeColor=none;fillColor=none;align=center;verticalAlign=middle;whiteSpace=wrap;rounded=0;fontSize=6;" parent="1" vertex="1">
                    <mxGeometry x="570" y="360" width="20" height="20" as="geometry"/>
                </mxCell>
                <mxCell id="59" value="NC" style="text;html=1;strokeColor=none;fillColor=none;align=center;verticalAlign=middle;whiteSpace=wrap;rounded=0;fontSize=8;" parent="1" vertex="1">
                    <mxGeometry x="370" y="300" width="20" height="20" as="geometry"/>
                </mxCell>
                <mxCell id="60" value="NC" style="text;html=1;strokeColor=none;fillColor=none;align=center;verticalAlign=middle;whiteSpace=wrap;rounded=0;fontSize=8;" parent="1" vertex="1">
                    <mxGeometry x="390" y="300" width="20" height="20" as="geometry"/>
                </mxCell>
                <mxCell id="61" value="NC" style="text;html=1;strokeColor=none;fillColor=none;align=center;verticalAlign=middle;whiteSpace=wrap;rounded=0;fontSize=8;" parent="1" vertex="1">
                    <mxGeometry x="410" y="300" width="20" height="20" as="geometry"/>
                </mxCell>
                <mxCell id="62" value="NC" style="text;html=1;strokeColor=none;fillColor=none;align=center;verticalAlign=middle;whiteSpace=wrap;rounded=0;fontSize=8;" parent="1" vertex="1">
                    <mxGeometry x="430" y="300" width="20" height="20" as="geometry"/>
                </mxCell>
                <mxCell id="63" value="NC" style="text;html=1;strokeColor=none;fillColor=none;align=center;verticalAlign=middle;whiteSpace=wrap;rounded=0;fontSize=8;" parent="1" vertex="1">
                    <mxGeometry x="450" y="300" width="20" height="20" as="geometry"/>
                </mxCell>
                <mxCell id="64" value="NC" style="text;html=1;strokeColor=none;fillColor=none;align=center;verticalAlign=middle;whiteSpace=wrap;rounded=0;fontSize=8;" parent="1" vertex="1">
                    <mxGeometry x="470" y="300" width="20" height="20" as="geometry"/>
                </mxCell>
                <mxCell id="65" value="NC" style="text;html=1;strokeColor=none;fillColor=none;align=center;verticalAlign=middle;whiteSpace=wrap;rounded=0;fontSize=8;" parent="1" vertex="1">
                    <mxGeometry x="490" y="300" width="20" height="20" as="geometry"/>
                </mxCell>
                <mxCell id="66" value="NC" style="text;html=1;strokeColor=none;fillColor=none;align=center;verticalAlign=middle;whiteSpace=wrap;rounded=0;fontSize=8;" parent="1" vertex="1">
                    <mxGeometry x="510" y="300" width="20" height="20" as="geometry"/>
                </mxCell>
                <mxCell id="67" value="NC" style="text;html=1;strokeColor=none;fillColor=none;align=center;verticalAlign=middle;whiteSpace=wrap;rounded=0;fontSize=8;" parent="1" vertex="1">
                    <mxGeometry x="530" y="300" width="20" height="20" as="geometry"/>
                </mxCell>
                <mxCell id="68" value="NC" style="text;html=1;strokeColor=none;fillColor=none;align=center;verticalAlign=middle;whiteSpace=wrap;rounded=0;fontSize=8;" parent="1" vertex="1">
                    <mxGeometry x="550" y="300" width="20" height="20" as="geometry"/>
                </mxCell>
                <mxCell id="69" value="NC" style="text;html=1;strokeColor=none;fillColor=none;align=center;verticalAlign=middle;whiteSpace=wrap;rounded=0;fontSize=8;" parent="1" vertex="1">
                    <mxGeometry x="570" y="300" width="20" height="20" as="geometry"/>
                </mxCell>
                <mxCell id="70" value="NC" style="text;html=1;strokeColor=none;fillColor=none;align=center;verticalAlign=middle;whiteSpace=wrap;rounded=0;fontSize=8;" parent="1" vertex="1">
                    <mxGeometry x="590" y="300" width="20" height="20" as="geometry"/>
                </mxCell>
                <mxCell id="71" value="NC" style="text;html=1;strokeColor=none;fillColor=none;align=center;verticalAlign=middle;whiteSpace=wrap;rounded=0;fontSize=8;" parent="1" vertex="1">
                    <mxGeometry x="610" y="300" width="20" height="20" as="geometry"/>
                </mxCell>
                <mxCell id="72" value="ACK" style="text;html=1;strokeColor=none;fillColor=none;align=center;verticalAlign=middle;whiteSpace=wrap;rounded=0;fontSize=6;" parent="1" vertex="1">
                    <mxGeometry x="590" y="360" width="20" height="20" as="geometry"/>
                </mxCell>
                <mxCell id="73" value="NAK" style="text;html=1;strokeColor=none;fillColor=none;align=center;verticalAlign=middle;whiteSpace=wrap;rounded=0;fontSize=6;" parent="1" vertex="1">
                    <mxGeometry x="610" y="360" width="20" height="20" as="geometry"/>
                </mxCell>
                <mxCell id="74" value="" style="endArrow=none;html=1;" edge="1" parent="1">
                    <mxGeometry width="50" height="50" relative="1" as="geometry">
                        <mxPoint x="599.5799999999999" as="sourcePoint"/>
                        <mxPoint x="599.5799999999999" y="-40" as="targetPoint"/>
                    </mxGeometry>
                </mxCell>
                <mxCell id="75" value="" style="endArrow=none;html=1;" edge="1" parent="1">
                    <mxGeometry width="50" height="50" relative="1" as="geometry">
                        <mxPoint x="579.5799999999999" as="sourcePoint"/>
                        <mxPoint x="579.5799999999999" y="-40" as="targetPoint"/>
                    </mxGeometry>
                </mxCell>
                <mxCell id="76" value="" style="endArrow=none;html=1;" edge="1" parent="1">
                    <mxGeometry width="50" height="50" relative="1" as="geometry">
                        <mxPoint x="559.9999999999999" as="sourcePoint"/>
                        <mxPoint x="559.9999999999999" y="-40" as="targetPoint"/>
                    </mxGeometry>
                </mxCell>
                <mxCell id="77" value="" style="endArrow=none;html=1;" edge="1" parent="1">
                    <mxGeometry width="50" height="50" relative="1" as="geometry">
                        <mxPoint x="539.9999999999999" as="sourcePoint"/>
                        <mxPoint x="539.9999999999999" y="-40" as="targetPoint"/>
                    </mxGeometry>
                </mxCell>
                <mxCell id="78" value="" style="endArrow=none;html=1;" edge="1" parent="1">
                    <mxGeometry width="50" height="50" relative="1" as="geometry">
                        <mxPoint x="519.9999999999999" as="sourcePoint"/>
                        <mxPoint x="519.9999999999999" y="-40" as="targetPoint"/>
                    </mxGeometry>
                </mxCell>
                <mxCell id="79" value="" style="endArrow=none;html=1;" edge="1" parent="1">
                    <mxGeometry width="50" height="50" relative="1" as="geometry">
                        <mxPoint x="499.99999999999994" as="sourcePoint"/>
                        <mxPoint x="499.99999999999994" y="-40" as="targetPoint"/>
                    </mxGeometry>
                </mxCell>
                <mxCell id="80" value="GND" style="text;html=1;strokeColor=none;fillColor=none;align=center;verticalAlign=middle;whiteSpace=wrap;rounded=0;fontSize=6;" vertex="1" parent="1">
                    <mxGeometry x="490" y="-60" width="20" height="20" as="geometry"/>
                </mxCell>
                <mxCell id="81" value="BLUE" style="text;html=1;strokeColor=none;fillColor=none;align=center;verticalAlign=middle;whiteSpace=wrap;rounded=0;fontSize=6;" vertex="1" parent="1">
                    <mxGeometry x="510" y="-60" width="20" height="20" as="geometry"/>
                </mxCell>
                <mxCell id="82" value="GREEN" style="text;html=1;strokeColor=none;fillColor=none;align=center;verticalAlign=middle;whiteSpace=wrap;rounded=0;fontSize=6;" vertex="1" parent="1">
                    <mxGeometry x="530" y="-60" width="20" height="20" as="geometry"/>
                </mxCell>
                <mxCell id="83" value="RED" style="text;html=1;strokeColor=none;fillColor=none;align=center;verticalAlign=middle;whiteSpace=wrap;rounded=0;fontSize=6;" vertex="1" parent="1">
                    <mxGeometry x="550" y="-60" width="20" height="20" as="geometry"/>
                </mxCell>
                <mxCell id="84" value="H" style="text;html=1;strokeColor=none;fillColor=none;align=center;verticalAlign=middle;whiteSpace=wrap;rounded=0;fontSize=6;" vertex="1" parent="1">
                    <mxGeometry x="570" y="-60" width="20" height="20" as="geometry"/>
                </mxCell>
                <mxCell id="85" value="V" style="text;html=1;strokeColor=none;fillColor=none;align=center;verticalAlign=middle;whiteSpace=wrap;rounded=0;fontSize=6;" vertex="1" parent="1">
                    <mxGeometry x="590" y="-60" width="20" height="20" as="geometry"/>
                </mxCell>
            </root>
        </mxGraphModel>
    </diagram>
</mxfile>